<?xml version="1.0" encoding="UTF-8" standalone="no"?>
<!-- Created with Inkscape (http://www.inkscape.org/) -->

<svg
   xmlns:dc="http://purl.org/dc/elements/1.1/"
   xmlns:cc="http://creativecommons.org/ns#"
   xmlns:rdf="http://www.w3.org/1999/02/22-rdf-syntax-ns#"
   xmlns:svg="http://www.w3.org/2000/svg"
   xmlns="http://www.w3.org/2000/svg"
   xmlns:sodipodi="http://sodipodi.sourceforge.net/DTD/sodipodi-0.dtd"
   xmlns:inkscape="http://www.inkscape.org/namespaces/inkscape"
   width="210mm"
   height="210mm"
   viewBox="0 0 210 210"
   version="1.1"
   id="svg8"
   inkscape:version="0.92.4 (5da689c313, 2019-01-14)"
   sodipodi:docname="ODO_Logo.svg"
   inkscape:export-filename="D:\ResDev\_Orgs\DevelopersPackages.org\Editors\ODO_Logo.png"
   inkscape:export-xdpi="494.93701"
   inkscape:export-ydpi="494.93701">
  <defs
     id="defs2" />
  <sodipodi:namedview
     id="base"
     pagecolor="#ffffff"
     bordercolor="#666666"
     borderopacity="1.0"
     inkscape:pageopacity="0.0"
     inkscape:pageshadow="2"
     inkscape:zoom="0.7"
     inkscape:cx="429.82908"
     inkscape:cy="335.71488"
     inkscape:document-units="mm"
     inkscape:current-layer="layer1"
     showgrid="false"
     showguides="false"
     inkscape:window-width="1842"
     inkscape:window-height="1051"
     inkscape:window-x="1669"
     inkscape:window-y="-9"
     inkscape:window-maximized="1" />
  <metadata
     id="metadata5">
    <rdf:RDF>
      <cc:Work
         rdf:about="">
        <dc:format>image/svg+xml</dc:format>
        <dc:type
           rdf:resource="http://purl.org/dc/dcmitype/StillImage" />
        <dc:title></dc:title>
      </cc:Work>
    </rdf:RDF>
  </metadata>
  <g
     inkscape:label="レイヤー 1"
     inkscape:groupmode="layer"
     id="layer1"
     transform="translate(0,-87)">
    <g
       id="g1397">
      <path
         sodipodi:nodetypes="ccccccc"
         inkscape:connector-curvature="0"
         id="path1178-8"
         d="m 121.69876,103.54146 -17.4074,16.79341 0.1532,138.7466 17.2542,-8.27449 69.86373,-0.13371 V 103.22963 Z"
         style="fill:#ecfaff;fill-opacity:0.74651164;stroke:none;stroke-width:0.26458332px;stroke-linecap:butt;stroke-linejoin:miter;stroke-opacity:1" />
      <path
         sodipodi:nodetypes="ccccccc"
         inkscape:connector-curvature="0"
         id="path1178"
         d="m 87.186118,103.85328 17.407392,16.79341 -0.1532,138.74659 -17.254192,-8.27449 -69.863734,-0.13371 0,-147.44363 z"
         style="fill:#ecfaff;fill-opacity:0.74651164;stroke:none;stroke-width:0.26458332px;stroke-linecap:butt;stroke-linejoin:miter;stroke-opacity:1" />
      <path
         inkscape:connector-curvature="0"
         id="path1104"
         d="m 112.2532,112.58403 h 71.96232 l -9.45613,-9.04259 -53.06063,1e-5 z"
         style="fill:#eeeeff;stroke:none;stroke-width:0.26458332px;stroke-linecap:butt;stroke-linejoin:miter;stroke-opacity:1;fill-opacity:0.97833937" />
      <path
         sodipodi:nodetypes="ccccccc"
         inkscape:connector-curvature="0"
         id="path1104-4"
         d="m 104.98064,241.45251 h 79.53702 l -9.45613,9.04259 -52.78045,0.25582 -17.83652,8.33055 0.24304,-8.24527 z"
         style="fill:#eedfff;fill-opacity:0.46867754;stroke:none;stroke-width:0.27815989px;stroke-linecap:butt;stroke-linejoin:miter;stroke-opacity:1" />
      <path
         inkscape:connector-curvature="0"
         id="path1104-0"
         d="m 24.37779,113.20772 h 71.96232 l -9.45613,-9.04259 -53.06063,10e-6 z"
         style="fill:#eeeeff;fill-opacity:0.9783394;stroke:none;stroke-width:0.26458332px;stroke-linecap:butt;stroke-linejoin:miter;stroke-opacity:1" />
      <path
         inkscape:connector-curvature="0"
         id="path1104-4-0"
         d="m 24.67993,242.0762 h 71.96232 l -9.45613,9.04259 -53.06063,-1e-5 z"
         style="fill:#eeeeff;fill-opacity:0.9783394;stroke:none;stroke-width:0.26458332px;stroke-linecap:butt;stroke-linejoin:miter;stroke-opacity:1" />
      <path
         inkscape:connector-curvature="0"
         id="path1106"
         d="m 174.75939,103.54144 0.30214,146.95366 16.80311,-16.61527 0.30214,-113.54498 z"
         style="fill:#e866ff;stroke:none;stroke-width:0.26458332px;stroke-linecap:butt;stroke-linejoin:miter;stroke-opacity:1;fill-opacity:0.42227381" />
      <path
         sodipodi:nodetypes="ccccc"
         inkscape:connector-curvature="0"
         id="path1106-8"
         d="m 121.86727,250.76239 -0.16851,-147.22093 -16.80311,16.61527 c -0.0813,43.55011 -0.45533,95.68633 -0.45534,139.23655 z"
         style="fill:#f3b0ff;fill-opacity:0.42227381;stroke:none;stroke-width:0.26458332px;stroke-linecap:butt;stroke-linejoin:miter;stroke-opacity:1" />
      <path
         inkscape:connector-curvature="0"
         id="path1106-0"
         d="m 87.18612,103.85328 0.30214,146.95366 16.80311,-16.61527 0.30214,-113.54498 z"
         style="fill:#e866ff;fill-opacity:0.42227381;stroke:none;stroke-width:0.26458332px;stroke-linecap:butt;stroke-linejoin:miter;stroke-opacity:1" />
      <path
         inkscape:connector-curvature="0"
         id="path1106-8-4"
         d="M 34.42763,104.16512 34.12549,251.11878 17.32238,234.50351 17.02024,120.95853 Z"
         style="fill:#f3b0ff;fill-opacity:0.42227381;stroke:none;stroke-width:0.26458332px;stroke-linecap:butt;stroke-linejoin:miter;stroke-opacity:1" />
      <path
         sodipodi:nodetypes="cccc"
         inkscape:connector-curvature="0"
         id="path1174"
         d="m 174.75939,103.54144 17.40739,16.79341 -20.04522,0.53454 z"
         style="fill:#89c955;fill-opacity:0.87238979;stroke:none;stroke-width:0.26458332px;stroke-linecap:butt;stroke-linejoin:miter;stroke-opacity:1" />
      <path
         inkscape:connector-curvature="0"
         id="path1195"
         d="M 17.02024,120.95853 34.427631,104.16512 17.322384,103.54145 Z"
         style="fill:#ff8ba8;stroke:none;stroke-width:0.26458332px;stroke-linecap:butt;stroke-linejoin:miter;stroke-opacity:1;fill-opacity:0.42227381" />
      <path
         sodipodi:nodetypes="cccc"
         inkscape:connector-curvature="0"
         id="path1195-9"
         d="m 191.86464,233.87983 -16.80311,16.61527 16.50096,0.17817 z"
         style="fill:#ff0242;fill-opacity:0.42227387;stroke:none;stroke-width:0.26458332px;stroke-linecap:butt;stroke-linejoin:miter;stroke-opacity:1" />
      <path
         sodipodi:nodetypes="cccc"
         inkscape:connector-curvature="0"
         id="path1195-99"
         d="m 17.32238,234.50351 16.80311,16.61527 -16.803106,-0.1337 z"
         style="fill:#ff8ba8;fill-opacity:0.42227382;stroke:none;stroke-width:0.26458332px;stroke-linecap:butt;stroke-linejoin:miter;stroke-opacity:1" />
      <path
         sodipodi:nodetypes="cccc"
         inkscape:connector-curvature="0"
         id="path1195-4"
         d="m 174.75939,103.54144 17.40739,16.79341 -0.60429,-17.10522 z"
         style="fill:#ff0242;fill-opacity:0.42227387;stroke:none;stroke-width:0.26458332px;stroke-linecap:butt;stroke-linejoin:miter;stroke-opacity:1" />
      <path
         sodipodi:nodetypes="cccc"
         inkscape:connector-curvature="0"
         id="path1195-99-7"
         d="m 104.29137,234.19167 0.15319,24.8898 -17.258442,-7.96268 z"
         style="fill:#ff0242;fill-opacity:0.42227387;stroke:none;stroke-width:0.26458332px;stroke-linecap:butt;stroke-linejoin:miter;stroke-opacity:1" />
      <path
         inkscape:connector-curvature="0"
         id="path1239"
         d="M 41.025672,125.41297 H 81.834755"
         style="fill:none;stroke:#c3c1c1;stroke-width:5.14330149;stroke-linecap:round;stroke-linejoin:round;stroke-miterlimit:4;stroke-dasharray:none;stroke-opacity:0.87674415" />
      <path
         inkscape:connector-curvature="0"
         id="path1239-4"
         d="M 40.870017,137.47112 H 81.6791"
         style="fill:none;stroke:#c3c1c1;stroke-width:5.14330149;stroke-linecap:round;stroke-linejoin:round;stroke-miterlimit:4;stroke-dasharray:none;stroke-opacity:0.87674415" />
      <path
         inkscape:connector-curvature="0"
         id="path1239-6"
         d="M 41.353455,149.63248 H 82.162537"
         style="fill:none;stroke:#c3c1c1;stroke-width:5.14330149;stroke-linecap:round;stroke-linejoin:round;stroke-miterlimit:4;stroke-dasharray:none;stroke-opacity:0.87674415" />
      <path
         inkscape:connector-curvature="0"
         id="path1239-4-5"
         d="M 41.1978,161.69063 H 82.006882"
         style="fill:none;stroke:#c3c1c1;stroke-width:5.14330149;stroke-linecap:round;stroke-linejoin:round;stroke-miterlimit:4;stroke-dasharray:none;stroke-opacity:0.87674415" />
      <path
         inkscape:connector-curvature="0"
         id="path1239-41"
         d="m 41.197802,172.8032 h 40.80908"
         style="fill:none;stroke:#c3c1c1;stroke-width:5.14330149;stroke-linecap:round;stroke-linejoin:round;stroke-miterlimit:4;stroke-dasharray:none;stroke-opacity:0.87674415" />
      <path
         inkscape:connector-curvature="0"
         id="path1239-4-3"
         d="m 41.042142,184.86136 h 40.80909"
         style="fill:none;stroke:#c3c1c1;stroke-width:5.14330149;stroke-linecap:round;stroke-linejoin:round;stroke-miterlimit:4;stroke-dasharray:none;stroke-opacity:0.87674415" />
      <path
         inkscape:connector-curvature="0"
         id="path1239-6-7"
         d="m 41.525582,197.02272 h 40.80909"
         style="fill:none;stroke:#c3c1c1;stroke-width:5.14330149;stroke-linecap:round;stroke-linejoin:round;stroke-miterlimit:4;stroke-dasharray:none;stroke-opacity:0.87674415" />
      <path
         inkscape:connector-curvature="0"
         id="path1239-4-5-9"
         d="m 41.369932,209.08087 h 40.80908"
         style="fill:none;stroke:#c3c1c1;stroke-width:5.14330149;stroke-linecap:round;stroke-linejoin:round;stroke-miterlimit:4;stroke-dasharray:none;stroke-opacity:0.87674415" />
      <path
         inkscape:connector-curvature="0"
         id="path1239-4-3-0"
         d="M 41.537543,220.19373 H 82.346634"
         style="fill:none;stroke:#c3c1c1;stroke-width:5.14330149;stroke-linecap:round;stroke-linejoin:round;stroke-miterlimit:4;stroke-dasharray:none;stroke-opacity:0.87674415" />
      <path
         inkscape:connector-curvature="0"
         id="path1239-6-7-7"
         d="M 42.020983,232.35509 H 82.830069"
         style="fill:none;stroke:#c3c1c1;stroke-width:5.14330149;stroke-linecap:round;stroke-linejoin:round;stroke-miterlimit:4;stroke-dasharray:none;stroke-opacity:0.87674415" />
      <path
         inkscape:connector-curvature="0"
         id="path1239-40"
         d="m 128.09143,125.46983 h 40.80908"
         style="fill:none;stroke:#c3c1c1;stroke-width:5.14330149;stroke-linecap:round;stroke-linejoin:round;stroke-miterlimit:4;stroke-dasharray:none;stroke-opacity:0.87674415" />
      <path
         inkscape:connector-curvature="0"
         id="path1239-4-37"
         d="m 127.93577,137.52798 h 40.80908"
         style="fill:none;stroke:#c3c1c1;stroke-width:5.14330149;stroke-linecap:round;stroke-linejoin:round;stroke-miterlimit:4;stroke-dasharray:none;stroke-opacity:0.87674415" />
      <path
         inkscape:connector-curvature="0"
         id="path1239-6-5"
         d="m 128.41921,149.68934 h 40.80908"
         style="fill:none;stroke:#c3c1c1;stroke-width:5.14330149;stroke-linecap:round;stroke-linejoin:round;stroke-miterlimit:4;stroke-dasharray:none;stroke-opacity:0.87674415" />
      <path
         inkscape:connector-curvature="0"
         id="path1239-4-5-1"
         d="m 128.26355,161.74749 h 40.80909"
         style="fill:none;stroke:#c3c1c1;stroke-width:5.14330149;stroke-linecap:round;stroke-linejoin:round;stroke-miterlimit:4;stroke-dasharray:none;stroke-opacity:0.87674415" />
      <path
         inkscape:connector-curvature="0"
         id="path1239-41-3"
         d="m 128.26356,172.86006 h 40.80908"
         style="fill:none;stroke:#c3c1c1;stroke-width:5.14330149;stroke-linecap:round;stroke-linejoin:round;stroke-miterlimit:4;stroke-dasharray:none;stroke-opacity:0.87674415" />
      <path
         inkscape:connector-curvature="0"
         id="path1239-4-3-01"
         d="m 128.1079,184.91822 h 40.80909"
         style="fill:none;stroke:#c3c1c1;stroke-width:5.14330149;stroke-linecap:round;stroke-linejoin:round;stroke-miterlimit:4;stroke-dasharray:none;stroke-opacity:0.87674415" />
      <path
         inkscape:connector-curvature="0"
         id="path1239-6-7-6"
         d="m 128.59134,197.07958 h 40.80909"
         style="fill:none;stroke:#c3c1c1;stroke-width:5.14330149;stroke-linecap:round;stroke-linejoin:round;stroke-miterlimit:4;stroke-dasharray:none;stroke-opacity:0.87674415" />
      <path
         inkscape:connector-curvature="0"
         id="path1239-4-5-9-4"
         d="m 128.43569,209.13773 h 40.80908"
         style="fill:none;stroke:#c3c1c1;stroke-width:5.14330149;stroke-linecap:round;stroke-linejoin:round;stroke-miterlimit:4;stroke-dasharray:none;stroke-opacity:0.87674415" />
      <path
         inkscape:connector-curvature="0"
         id="path1239-4-3-0-8"
         d="m 128.6033,220.25059 h 40.80909"
         style="fill:none;stroke:#c3c1c1;stroke-width:5.14330149;stroke-linecap:round;stroke-linejoin:round;stroke-miterlimit:4;stroke-dasharray:none;stroke-opacity:0.87674415" />
      <path
         inkscape:connector-curvature="0"
         id="path1239-6-7-7-4"
         d="m 129.08674,232.41195 h 40.80908"
         style="fill:none;stroke:#c3c1c1;stroke-width:5.14330149;stroke-linecap:round;stroke-linejoin:round;stroke-miterlimit:4;stroke-dasharray:none;stroke-opacity:0.87674415" />
    </g>
    <flowRoot
       xml:space="preserve"
       id="flowRoot1399"
       style="fill:black;fill-opacity:1;stroke:none;font-family:sans-serif;font-style:normal;font-weight:normal;font-size:40px;line-height:1.25;letter-spacing:0px;word-spacing:0px"><flowRegion
         id="flowRegion1401"><rect
           id="rect1403"
           width="667.14282"
           height="114.28571"
           x="74.285713"
           y="666.55792" /></flowRegion><flowPara
         id="flowPara1405" /></flowRoot>    <g
       aria-label="OpenDocument.org"
       transform="matrix(0.26458333,0,0,0.26458333,0,87)"
       style="font-style:normal;font-weight:normal;font-size:66.66667175px;line-height:1.25;font-family:sans-serif;letter-spacing:0px;word-spacing:0px;fill:#000000;fill-opacity:1;stroke:none"
       id="flowRoot1407">
      <path
         d="m 96.269533,669.97266 q -7.161459,0 -11.39323,5.33854 -4.199219,5.33854 -4.199219,14.55078 0,9.17969 4.199219,14.51823 4.231771,5.33854 11.39323,5.33854 7.161457,0 11.328127,-5.33854 4.19922,-5.33854 4.19922,-14.51823 0,-9.21224 -4.19922,-14.55078 -4.16667,-5.33854 -11.328127,-5.33854 z m 0,-5.33854 q 10.221357,0 16.341147,6.86849 6.11979,6.83593 6.11979,18.35937 0,11.49089 -6.11979,18.35938 -6.11979,6.83594 -16.341147,6.83594 -10.253907,0 -16.406251,-6.83594 -6.119792,-6.83594 -6.119792,-18.35938 0,-11.52344 6.119792,-18.35937 6.152344,-6.86849 16.406251,-6.86849 z"
         style="font-size:66.66667175px"
         id="path965" />
      <path
         d="m 134.55078,708.64454 v 19.33593 h -6.02213 v -50.32552 h 6.02213 v 5.53385 q 1.88803,-3.2552 4.75261,-4.8177 2.89713,-1.59506 6.90104,-1.59506 6.64063,0 10.77474,5.27344 4.16667,5.27344 4.16667,13.86719 0,8.59375 -4.16667,13.86719 -4.13411,5.27344 -10.77474,5.27344 -4.00391,0 -6.90104,-1.5625 -2.86458,-1.59506 -4.75261,-4.85026 z m 20.37761,-12.72787 q 0,-6.60807 -2.73437,-10.35156 -2.70183,-3.77605 -7.45443,-3.77605 -4.75261,0 -7.48698,3.77605 -2.70183,3.74349 -2.70183,10.35156 0,6.60807 2.70183,10.38412 2.73437,3.74349 7.48698,3.74349 4.7526,0 7.45443,-3.74349 2.73437,-3.77605 2.73437,-10.38412 z"
         style="font-size:66.66667175px"
         id="path967" />
      <path
         d="m 202.25912,694.38672 v 2.92969 h -27.53906 q 0.39062,6.1849 3.71094,9.4401 3.35286,3.22266 9.30989,3.22266 3.45052,0 6.67318,-0.84635 3.25521,-0.84636 6.44531,-2.53907 v 5.66407 q -3.22265,1.36718 -6.60807,2.08333 -3.38542,0.71615 -6.86849,0.71615 -8.72396,0 -13.83464,-5.07813 -5.07812,-5.07812 -5.07812,-13.73698 0,-8.95182 4.81771,-14.19271 4.85026,-5.27344 13.05338,-5.27344 7.35677,0 11.6211,4.75261 4.29687,4.72005 4.29687,12.85807 z m -5.98958,-1.75781 q -0.0651,-4.91537 -2.76693,-7.84505 -2.66927,-2.92969 -7.09635,-2.92969 -5.01302,0 -8.04037,2.83203 -2.99479,2.83203 -3.45052,7.97526 z"
         style="font-size:66.66667175px"
         id="path969" />
      <path
         d="m 242.39584,692.10808 v 22.00521 h -5.98958 v -21.8099 q 0,-5.17578 -2.01823,-7.7474 -2.01823,-2.57161 -6.05469,-2.57161 -4.85026,0 -7.64974,3.09245 -2.79948,3.09244 -2.79948,8.43099 v 20.60547 h -6.02214 v -36.45834 h 6.02214 v 5.66406 q 2.14844,-3.28776 5.04557,-4.91536 2.92969,-1.62761 6.73829,-1.62761 6.28255,0 9.5052,3.90625 3.22266,3.8737 3.22266,11.42579 z"
         style="font-size:66.66667175px"
         id="path971" />
      <path
         d="m 261.24351,670.91667 v 37.79297 h 7.9427 q 10.0586,0 14.71355,-4.55729 4.6875,-4.55729 4.6875,-14.38802 0,-9.76563 -4.6875,-14.29037 -4.65495,-4.55729 -14.71355,-4.55729 z m -6.57553,-5.40365 h 13.50912 q 14.12761,0 20.73568,5.89193 6.60807,5.85937 6.60807,18.35938 0,12.5651 -6.64062,18.45703 -6.64063,5.89193 -20.70313,5.89193 h -13.50912 z"
         style="font-size:66.66667175px"
         id="path973" />
      <path
         d="m 319.83725,681.85417 q -4.81771,0 -7.61719,3.77604 -2.79948,3.74349 -2.79948,10.28646 0,6.54297 2.76693,10.31901 2.79948,3.74349 7.64974,3.74349 4.78516,0 7.58464,-3.77604 2.79948,-3.77604 2.79948,-10.28646 0,-6.47787 -2.79948,-10.25391 -2.79948,-3.80859 -7.58464,-3.80859 z m 0,-5.07813 q 7.8125,0 12.27214,5.07813 4.45963,5.07812 4.45963,14.0625 0,8.95182 -4.45963,14.0625 -4.45964,5.07813 -12.27214,5.07813 -7.84505,0 -12.30469,-5.07813 -4.42708,-5.11068 -4.42708,-14.0625 0,-8.98438 4.42708,-14.0625 4.45964,-5.07813 12.30469,-5.07813 z"
         style="font-size:66.66667175px"
         id="path975" />
      <path
         d="m 372.70185,679.05469 v 5.59896 q -2.53907,-1.39974 -5.11068,-2.08334 -2.53906,-0.71614 -5.14323,-0.71614 -5.82682,0 -9.04948,3.71094 -3.22266,3.67838 -3.22266,10.35156 0,6.67318 3.22266,10.38412 3.22266,3.67838 9.04948,3.67838 2.60417,0 5.14323,-0.68359 2.57161,-0.71615 5.11068,-2.11589 v 5.53386 q -2.50651,1.17187 -5.20834,1.75781 -2.66927,0.58594 -5.69661,0.58594 -8.23568,0 -13.08594,-5.17579 -4.85026,-5.17578 -4.85026,-13.96484 0,-8.91927 4.88281,-14.02995 4.91537,-5.11068 13.44401,-5.11068 2.76693,0 5.40365,0.58594 2.63672,0.55339 5.11068,1.69271 z"
         style="font-size:66.66667175px"
         id="path977" />
      <path
         d="m 382.56512,699.72526 v -22.07031 h 5.98959 v 21.84245 q 0,5.17578 2.01823,7.77995 2.01823,2.57161 6.05469,2.57161 4.85026,0 7.64974,-3.09245 2.83203,-3.09244 2.83203,-8.43099 v -20.67057 h 5.98958 v 36.45834 h -5.98958 v -5.59896 q -2.18099,3.32031 -5.07813,4.94791 -2.86458,1.59506 -6.67318,1.59506 -6.28255,0 -9.53776,-3.90625 -3.25521,-3.90625 -3.25521,-11.42579 z m 15.07162,-22.94922 z"
         style="font-size:66.66667175px"
         id="path979" />
      <path
         d="m 453.88675,684.65365 q 2.2461,-4.03646 5.3711,-5.95703 3.125,-1.92058 7.35677,-1.92058 5.69661,0 8.78906,4.00391 3.09245,3.97135 3.09245,11.32813 v 22.00521 h -6.02214 v -21.8099 q 0,-5.24089 -1.85547,-7.77995 -1.85546,-2.53906 -5.66406,-2.53906 -4.65495,0 -7.35677,3.09245 -2.70182,3.09244 -2.70182,8.43099 v 20.60547 h -6.02214 v -21.8099 q 0,-5.27344 -1.85547,-7.77995 -1.85547,-2.53906 -5.72917,-2.53906 -4.58984,0 -7.29166,3.125 -2.70183,3.09245 -2.70183,8.39844 v 20.60547 h -6.02213 v -36.45834 h 6.02213 v 5.66406 q 2.05079,-3.35286 4.91537,-4.94791 2.86458,-1.59506 6.80339,-1.59506 3.97135,0 6.73828,2.01823 2.79948,2.01823 4.13411,5.85938 z"
         style="font-size:66.66667175px"
         id="path981" />
      <path
         d="m 521.6602,694.38672 v 2.92969 h -27.53906 q 0.39062,6.1849 3.71093,9.4401 3.35287,3.22266 9.3099,3.22266 3.45052,0 6.67318,-0.84635 3.25521,-0.84636 6.44531,-2.53907 v 5.66407 q -3.22266,1.36718 -6.60807,2.08333 -3.38542,0.71615 -6.86849,0.71615 -8.72396,0 -13.83464,-5.07813 -5.07813,-5.07812 -5.07813,-13.73698 0,-8.95182 4.81771,-14.19271 4.85026,-5.27344 13.05339,-5.27344 7.35677,0 11.62109,4.75261 4.29688,4.72005 4.29688,12.85807 z m -5.98958,-1.75781 q -0.0651,-4.91537 -2.76693,-7.84505 -2.66927,-2.92969 -7.09636,-2.92969 -5.01302,0 -8.04036,2.83203 -2.99479,2.83203 -3.45052,7.97526 z"
         style="font-size:66.66667175px"
         id="path983" />
      <path
         d="m 561.79692,692.10808 v 22.00521 h -5.98959 v -21.8099 q 0,-5.17578 -2.01822,-7.7474 -2.01823,-2.57161 -6.05469,-2.57161 -4.85026,0 -7.64974,3.09245 -2.79948,3.09244 -2.79948,8.43099 v 20.60547 h -6.02214 v -36.45834 h 6.02214 v 5.66406 q 2.14844,-3.28776 5.04557,-4.91536 2.92969,-1.62761 6.73828,-1.62761 6.28256,0 9.50521,3.90625 3.22266,3.8737 3.22266,11.42579 z"
         style="font-size:66.66667175px"
         id="path985" />
      <path
         d="m 579.73309,667.30339 v 10.35156 h 12.33724 v 4.65495 h -12.33724 v 19.79167 q 0,4.45963 1.20443,5.72916 1.23698,1.26953 4.98047,1.26953 h 6.15234 v 5.01303 h -6.15234 q -6.93359,0 -9.57031,-2.57162 -2.63672,-2.60417 -2.63672,-9.4401 V 682.3099 h -4.39453 v -4.65495 h 4.39453 v -10.35156 z"
         style="font-size:66.66667175px"
         id="path987" />
      <path
         d="m 600.82684,705.84506 h 6.86849 v 8.26823 h -6.86849 z"
         style="font-size:66.66667175px"
         id="path989" />
      <path
         d="m 635.33209,681.85417 q -4.8177,0 -7.61718,3.77604 -2.79948,3.74349 -2.79948,10.28646 0,6.54297 2.76692,10.31901 2.79948,3.74349 7.64974,3.74349 4.78516,0 7.58464,-3.77604 2.79948,-3.77604 2.79948,-10.28646 0,-6.47787 -2.79948,-10.25391 -2.79948,-3.80859 -7.58464,-3.80859 z m 0,-5.07813 q 7.8125,0 12.27214,5.07813 4.45964,5.07812 4.45964,14.0625 0,8.95182 -4.45964,14.0625 -4.45964,5.07813 -12.27214,5.07813 -7.84505,0 -12.30468,-5.07813 -4.42709,-5.11068 -4.42709,-14.0625 0,-8.98438 4.42709,-14.0625 4.45963,-5.07813 12.30468,-5.07813 z"
         style="font-size:66.66667175px"
         id="path991" />
      <path
         d="m 683.08598,683.25391 q -1.00911,-0.58594 -2.21354,-0.84636 -1.17188,-0.29296 -2.60417,-0.29296 -5.07812,0 -7.8125,3.32031 -2.70182,3.28776 -2.70182,9.47266 v 19.20573 h -6.02214 v -36.45834 h 6.02214 v 5.66406 q 1.88802,-3.32031 4.91536,-4.91536 3.02735,-1.62761 7.35677,-1.62761 0.61849,0 1.36719,0.0977 0.7487,0.0651 1.66016,0.22786 z"
         style="font-size:66.66667175px"
         id="path993" />
      <path
         d="m 712.25263,695.46094 q 0,-6.51042 -2.70183,-10.09115 -2.66927,-3.58073 -7.51953,-3.58073 -4.81771,0 -7.51953,3.58073 -2.66927,3.58073 -2.66927,10.09115 0,6.47787 2.66927,10.0586 2.70182,3.58072 7.51953,3.58072 4.85026,0 7.51953,-3.58072 2.70183,-3.58073 2.70183,-10.0586 z m 5.98958,14.12761 q 0,9.30989 -4.13411,13.83463 -4.13412,4.55729 -12.66277,4.55729 -3.15755,0 -5.95703,-0.48828 -2.79948,-0.45573 -5.4362,-1.43229 v -5.82682 q 2.63672,1.43229 5.20834,2.11588 2.57161,0.6836 5.24088,0.6836 5.89193,0 8.82162,-3.09245 2.92969,-3.0599 2.92969,-9.27735 v -2.96224 q -1.85547,3.22266 -4.75261,4.81771 -2.89713,1.59506 -6.93359,1.59506 -6.70573,0 -10.80729,-5.11068 -4.10157,-5.11068 -4.10157,-13.54167 0,-8.46354 4.10157,-13.57422 4.10156,-5.11068 10.80729,-5.11068 4.03646,0 6.93359,1.59506 2.89714,1.59505 4.75261,4.8177 v -5.53385 h 5.98958 z"
         style="font-size:66.66667175px"
         id="path995" />
    </g>
  </g>
</svg>
